<svg width="16" height="16" viewBox="0 0 16 16" fill="none" xmlns="http://www.w3.org/2000/svg">
<g clip-path="url(#clip0_34_41)">
<rect width="16" height="16" fill="#FBCC5C"/>
<path d="M5.80715 6.85022L5.29868 4.95256L7.29891 4.4166L9.23461 4.25524L9.2735 3.88751L7.45314 3.24838L5.65792 2.19024L6.6341 0.499437L8.44809 1.52507L9.91178 2.78199L10.2108 2.56444L9.38269 0.807394L8.84673 -1.19284L10.7444 -1.70132L11.2803 0.298918L11.4417 2.23462L11.8094 2.27351L12.4486 0.453145L13.5067 -1.34207L15.1975 -0.365889L14.1719 1.4481L12.915 2.91178L13.1325 3.2108L14.8896 2.38269L16.8898 1.84673L17.3983 3.74439L15.398 4.28035L13.4623 4.44171L13.4234 4.80944L15.2438 5.44857L17.039 6.50672L16.0628 8.19751L14.2488 7.17188L12.7852 5.91496L12.4861 6.13251L13.3143 7.88956L13.8502 9.88979L11.9526 10.3983L11.4166 8.39803L11.2552 6.46233L10.8875 6.42344L10.2484 8.24381L9.19023 10.039L7.49943 9.06284L8.52506 7.24885L9.78198 5.78517L9.56443 5.48615L7.80739 6.31426L5.80715 6.85022Z" fill="#611F69"/>
</g>
<defs>
<clipPath id="clip0_34_41">
<rect width="16" height="16" fill="white"/>
</clipPath>
</defs>
</svg>
